#define rubik_width 15
#define rubik_height 15
static unsigned char rubik_bits[] = {
   0x00, 0x00, 0x00, 0x00, 0xdc, 0x1d, 0xdc, 0x1d, 0xdc, 0x1d, 0x00, 0x00,
   0xdc, 0x1d, 0xdc, 0x1d, 0xdc, 0x1d, 0x00, 0x00, 0xdc, 0x1d, 0xdc, 0x1d,
   0xdc, 0x1d, 0x00, 0x00, 0x00, 0x00 };
